# xmcd
#
# Track frame offsets: 
#        150
#        9061
#        30882
#        41618
#        60152
#        76282
#        90274
#        106391
#        129986
#        150430
#        170446
#        188915
#
# Disc length: 2790 seconds
#
# Revision: 0
# Processed by: cddbd v1.5.2PL0 Copyright (c) Steve Scherf et al.
# Submitted via: ExactAudioCopy v0.99pb4
#
DISCID=720ae40c
DTITLE=Misha Piatigorsky - AYA
DYEAR=2007
DGENRE=Jazz
TTITLE0=Mama Got Me Thinkin'
TTITLE1=Low Talk
TTITLE2=Sancte Katherine
TTITLE3=Green Monkey
TTITLE4=Amerikana
TTITLE5=Boogaloo Madness
TTITLE6=Promises
TTITLE7=Montevideo
TTITLE8=Dance Of The Chlean Turtles
TTITLE9=One Time And Again (Anatalya's Lullaby)
TTITLE10=Je Me Souvien
TTITLE11=Baiao Banana
EXTD=
EXTT0=
EXTT1=
EXTT2=
EXTT3=
EXTT4=
EXTT5=
EXTT6=
EXTT7=
EXTT8=
EXTT9=
EXTT10=
EXTT11=
PLAYORDER=
